<?xml version="1.0" standalone="no"?>
<!DOCTYPE svg PUBLIC "-//W3C//DTD SVG 20010904//EN"
 "http://www.w3.org/TR/2001/REC-SVG-20010904/DTD/svg10.dtd">
<svg version="1.0" xmlns="http://www.w3.org/2000/svg"
 width="756.000000pt" height="756.000000pt" viewBox="0 0 756.000000 756.000000"
 preserveAspectRatio="xMidYMid meet">
<metadata>
Created by potrace 1.14, written by Peter Selinger 2001-2017
</metadata>
<g transform="translate(0.000000,756.000000) scale(0.100000,-0.100000)"
fill="#000000" stroke="none">
<path d="M3549 7556 c-2 -2 -40 -6 -84 -10 -121 -9 -169 -15 -295 -37 -152
-25 -158 -26 -253 -50 -45 -11 -89 -21 -97 -23 -234 -55 -589 -197 -863 -345
-166 -90 -537 -341 -537 -363 0 -4 -5 -8 -10 -8 -5 0 -18 -8 -28 -17 -10 -10
-43 -38 -73 -63 -73 -60 -331 -319 -404 -405 -33 -39 -94 -115 -135 -170 -41
-55 -78 -101 -82 -103 -5 -2 -8 -7 -8 -12 0 -5 -24 -44 -53 -87 -30 -43 -62
-94 -73 -113 -10 -19 -29 -49 -41 -67 -59 -90 -194 -377 -283 -603 -55 -136
-158 -525 -175 -654 -3 -21 -8 -60 -25 -171 -31 -204 -34 -743 -5 -904 1 -9 6
-43 10 -76 4 -32 8 -67 10 -76 2 -9 6 -32 9 -50 4 -29 24 -129 42 -218 11 -56
67 -250 98 -344 66 -199 122 -330 233 -552 59 -119 237 -407 254 -413 5 -2 9
-8 9 -14 0 -7 140 -198 160 -218 3 -3 32 -36 64 -75 131 -154 383 -393 545
-517 42 -33 83 -64 91 -71 16 -13 213 -145 245 -164 120 -72 183 -106 315
-172 85 -42 193 -92 240 -110 47 -18 94 -37 105 -41 90 -36 380 -125 445 -136
14 -3 33 -7 42 -10 10 -3 30 -8 45 -10 16 -3 71 -14 123 -24 52 -10 127 -21
165 -25 39 -4 79 -9 90 -12 92 -18 570 -25 740 -10 50 4 137 15 195 23 58 9
121 18 140 21 43 6 325 71 360 83 14 5 72 23 130 40 411 126 856 365 1220 657
132 105 403 367 507 489 65 77 231 298 263 350 13 21 28 40 32 42 4 2 8 8 8
14 0 5 13 28 28 51 86 128 205 361 296 579 56 137 148 421 170 528 3 14 13 57
21 95 22 97 45 229 51 295 3 30 7 61 10 68 25 80 25 668 -1 872 -10 76 -15
116 -19 136 -2 12 -7 39 -10 59 -14 89 -57 279 -81 361 -14 49 -28 98 -30 109
-9 40 -101 295 -130 362 -10 21 -33 72 -53 113 -20 41 -36 77 -37 80 -12 51
-266 476 -340 568 -7 10 -60 76 -117 147 -56 72 -170 198 -253 281 -135 136
-172 170 -271 254 -42 37 -249 190 -319 237 -238 159 -580 329 -840 418 -44
15 -87 29 -95 32 -20 8 -18 7 -162 47 -115 32 -251 64 -303 71 -11 2 -60 10
-110 18 -49 9 -117 18 -150 22 -33 3 -73 8 -90 11 -34 5 -571 14 -576 10z"/>
</g>
</svg>
